<mxfile host="65bd71144e">
    <diagram id="_flx_zugoyVMeXk7aOnS" name="Introdução a UML">
        <mxGraphModel dx="1374" dy="798" grid="1" gridSize="10" guides="1" tooltips="1" connect="1" arrows="1" fold="1" page="1" pageScale="1" pageWidth="1654" pageHeight="2336" math="0" shadow="0">
            <root>
                <mxCell id="0"/>
                <mxCell id="1" parent="0"/>
                <mxCell id="41" value="" style="rounded=0;whiteSpace=wrap;html=1;fontSize=20;fillColor=#1ba1e2;fontColor=#ffffff;strokeColor=#006EAF;" vertex="1" parent="1">
                    <mxGeometry x="80" y="260" width="1520" height="520" as="geometry"/>
                </mxCell>
                <mxCell id="2" value="UML&lt;br style=&quot;font-size: 20px&quot;&gt;Unified Modeling Language&amp;nbsp;&lt;br&gt;(Linguagem de Modelagem Unificada&lt;br&gt;" style="text;html=1;strokeColor=#006EAF;fillColor=#1ba1e2;align=center;verticalAlign=middle;whiteSpace=wrap;rounded=0;fontSize=20;fontColor=#ffffff;" vertex="1" parent="1">
                    <mxGeometry x="665" y="20" width="490" height="80" as="geometry"/>
                </mxCell>
                <mxCell id="4" value="&amp;nbsp;- Conjunto de definições e notações&lt;br&gt;&amp;nbsp;- Objetivos: documentar, visualizar, especificar e contruir&lt;br&gt;&amp;nbsp;- A Versão atual da UML é 2.5" style="text;html=1;strokeColor=#006EAF;fillColor=#1ba1e2;align=left;verticalAlign=middle;whiteSpace=wrap;rounded=0;fontSize=18;fontColor=#ffffff;" vertex="1" parent="1">
                    <mxGeometry x="665" y="120" width="490" height="90" as="geometry"/>
                </mxCell>
                <mxCell id="5" value="DIAGRAMA" style="rounded=0;whiteSpace=wrap;html=1;fontSize=18;" vertex="1" parent="1">
                    <mxGeometry x="780" y="280" width="130" height="40" as="geometry"/>
                </mxCell>
                <mxCell id="22" style="edgeStyle=none;html=1;entryX=0.5;entryY=0;entryDx=0;entryDy=0;fontSize=18;endArrow=none;endFill=0;" edge="1" parent="1" source="6" target="7">
                    <mxGeometry relative="1" as="geometry">
                        <Array as="points">
                            <mxPoint x="480" y="360"/>
                            <mxPoint x="1272" y="360"/>
                        </Array>
                    </mxGeometry>
                </mxCell>
                <mxCell id="6" value="Diagrama de Estruturas" style="rounded=0;whiteSpace=wrap;html=1;fontSize=18;" vertex="1" parent="1">
                    <mxGeometry x="400" y="390" width="160" height="40" as="geometry"/>
                </mxCell>
                <mxCell id="7" value="Diagrama de Comportamentos" style="rounded=0;whiteSpace=wrap;html=1;fontSize=18;" vertex="1" parent="1">
                    <mxGeometry x="1182" y="390" width="180" height="40" as="geometry"/>
                </mxCell>
                <mxCell id="18" style="edgeStyle=none;html=1;exitX=0.5;exitY=0;exitDx=0;exitDy=0;fontSize=18;endArrow=none;endFill=0;" edge="1" parent="1" source="8">
                    <mxGeometry relative="1" as="geometry">
                        <mxPoint x="270" y="480" as="targetPoint"/>
                    </mxGeometry>
                </mxCell>
                <mxCell id="8" value="Diagrama de Classes" style="rounded=0;whiteSpace=wrap;html=1;fontSize=18;" vertex="1" parent="1">
                    <mxGeometry x="210" y="510" width="120" height="40" as="geometry"/>
                </mxCell>
                <mxCell id="9" value="Diagrama de Componentes" style="rounded=0;whiteSpace=wrap;html=1;fontSize=18;" vertex="1" parent="1">
                    <mxGeometry x="410" y="510" width="140" height="40" as="geometry"/>
                </mxCell>
                <mxCell id="19" style="edgeStyle=none;html=1;exitX=0.5;exitY=0;exitDx=0;exitDy=0;fontSize=18;endArrow=none;endFill=0;" edge="1" parent="1" source="10">
                    <mxGeometry relative="1" as="geometry">
                        <mxPoint x="700" y="480" as="targetPoint"/>
                    </mxGeometry>
                </mxCell>
                <mxCell id="10" value="Diagrama de Objetos" style="rounded=0;whiteSpace=wrap;html=1;fontSize=18;" vertex="1" parent="1">
                    <mxGeometry x="640" y="510" width="120" height="40" as="geometry"/>
                </mxCell>
                <mxCell id="17" style="edgeStyle=none;html=1;exitX=0.5;exitY=0;exitDx=0;exitDy=0;entryX=0.5;entryY=0;entryDx=0;entryDy=0;fontSize=18;endArrow=none;endFill=0;" edge="1" parent="1" source="11" target="14">
                    <mxGeometry relative="1" as="geometry">
                        <Array as="points">
                            <mxPoint x="165" y="480"/>
                            <mxPoint x="799" y="480"/>
                        </Array>
                    </mxGeometry>
                </mxCell>
                <mxCell id="11" value="Diagrama de Perfil" style="rounded=0;whiteSpace=wrap;html=1;fontSize=18;" vertex="1" parent="1">
                    <mxGeometry x="90" y="600" width="150" height="40" as="geometry"/>
                </mxCell>
                <mxCell id="21" style="edgeStyle=none;html=1;fontSize=18;endArrow=none;endFill=0;" edge="1" parent="1" source="12">
                    <mxGeometry relative="1" as="geometry">
                        <mxPoint x="390" y="480" as="targetPoint"/>
                    </mxGeometry>
                </mxCell>
                <mxCell id="12" value="Diagrama de Estruturas Compostas" style="rounded=0;whiteSpace=wrap;html=1;fontSize=18;" vertex="1" parent="1">
                    <mxGeometry x="290" y="600" width="200" height="40" as="geometry"/>
                </mxCell>
                <mxCell id="20" style="edgeStyle=none;html=1;exitX=0.5;exitY=0;exitDx=0;exitDy=0;fontSize=18;endArrow=none;endFill=0;" edge="1" parent="1" source="13">
                    <mxGeometry relative="1" as="geometry">
                        <mxPoint x="610" y="480" as="targetPoint"/>
                    </mxGeometry>
                </mxCell>
                <mxCell id="13" value="Diagrama de Implatação" style="rounded=0;whiteSpace=wrap;html=1;fontSize=18;" vertex="1" parent="1">
                    <mxGeometry x="520" y="600" width="180" height="40" as="geometry"/>
                </mxCell>
                <mxCell id="14" value="Diagrama de Pacotes" style="rounded=0;whiteSpace=wrap;html=1;fontSize=18;" vertex="1" parent="1">
                    <mxGeometry x="727" y="600" width="143" height="40" as="geometry"/>
                </mxCell>
                <mxCell id="16" value="" style="endArrow=block;endSize=16;endFill=0;html=1;fontSize=18;exitX=0.5;exitY=0;exitDx=0;exitDy=0;entryX=0.5;entryY=1;entryDx=0;entryDy=0;" edge="1" parent="1" source="9" target="6">
                    <mxGeometry width="160" relative="1" as="geometry">
                        <mxPoint x="490" y="480" as="sourcePoint"/>
                        <mxPoint x="650" y="480" as="targetPoint"/>
                    </mxGeometry>
                </mxCell>
                <mxCell id="23" value="" style="endArrow=block;endSize=16;endFill=0;html=1;fontSize=18;entryX=0.5;entryY=1;entryDx=0;entryDy=0;" edge="1" parent="1">
                    <mxGeometry width="160" relative="1" as="geometry">
                        <mxPoint x="850" y="360" as="sourcePoint"/>
                        <mxPoint x="850" y="320" as="targetPoint"/>
                    </mxGeometry>
                </mxCell>
                <mxCell id="34" style="edgeStyle=none;html=1;entryX=0.5;entryY=0;entryDx=0;entryDy=0;fontSize=18;endArrow=none;endFill=0;" edge="1" parent="1" source="24" target="27">
                    <mxGeometry relative="1" as="geometry">
                        <Array as="points">
                            <mxPoint x="1172" y="470"/>
                            <mxPoint x="1462" y="470"/>
                        </Array>
                    </mxGeometry>
                </mxCell>
                <mxCell id="24" value="Diagrama de Atividades" style="rounded=0;whiteSpace=wrap;html=1;fontSize=18;" vertex="1" parent="1">
                    <mxGeometry x="1112" y="500" width="120" height="40" as="geometry"/>
                </mxCell>
                <mxCell id="35" style="edgeStyle=none;html=1;exitX=0.5;exitY=0;exitDx=0;exitDy=0;fontSize=18;endArrow=none;endFill=0;" edge="1" parent="1" source="25">
                    <mxGeometry relative="1" as="geometry">
                        <mxPoint x="1352" y="470" as="targetPoint"/>
                    </mxGeometry>
                </mxCell>
                <mxCell id="25" value="Diagrama de Casos de Uso" style="rounded=0;whiteSpace=wrap;html=1;fontSize=18;" vertex="1" parent="1">
                    <mxGeometry x="1292" y="500" width="120" height="40" as="geometry"/>
                </mxCell>
                <mxCell id="26" value="Diagrama de Interação" style="rounded=0;whiteSpace=wrap;html=1;fontSize=18;" vertex="1" parent="1">
                    <mxGeometry x="1204" y="570" width="120" height="40" as="geometry"/>
                </mxCell>
                <mxCell id="27" value="Diagrama de Máquina de Estados" style="rounded=0;whiteSpace=wrap;html=1;fontSize=18;" vertex="1" parent="1">
                    <mxGeometry x="1362" y="570" width="200" height="40" as="geometry"/>
                </mxCell>
                <mxCell id="28" value="Diagrama de Sequencia" style="rounded=0;whiteSpace=wrap;html=1;fontSize=18;" vertex="1" parent="1">
                    <mxGeometry x="850" y="700" width="120" height="40" as="geometry"/>
                </mxCell>
                <mxCell id="38" style="edgeStyle=none;html=1;fontSize=18;endArrow=none;endFill=0;" edge="1" parent="1" source="29">
                    <mxGeometry relative="1" as="geometry">
                        <mxPoint x="1080" y="680" as="targetPoint"/>
                    </mxGeometry>
                </mxCell>
                <mxCell id="29" value="Diagrama de Comunicação" style="rounded=0;whiteSpace=wrap;html=1;fontSize=18;" vertex="1" parent="1">
                    <mxGeometry x="1020" y="700" width="120" height="40" as="geometry"/>
                </mxCell>
                <mxCell id="30" value="Diagrama de Visão Geral de Interação" style="rounded=0;whiteSpace=wrap;html=1;fontSize=18;" vertex="1" parent="1">
                    <mxGeometry x="1182" y="700" width="168" height="40" as="geometry"/>
                </mxCell>
                <mxCell id="36" style="edgeStyle=none;html=1;entryX=0.5;entryY=0;entryDx=0;entryDy=0;fontSize=18;endArrow=none;endFill=0;" edge="1" parent="1" source="32" target="28">
                    <mxGeometry relative="1" as="geometry">
                        <Array as="points">
                            <mxPoint x="1440" y="680"/>
                            <mxPoint x="910" y="680"/>
                        </Array>
                    </mxGeometry>
                </mxCell>
                <mxCell id="32" value="Diagrama de Tempo" style="rounded=0;whiteSpace=wrap;html=1;fontSize=18;" vertex="1" parent="1">
                    <mxGeometry x="1370" y="700" width="140" height="40" as="geometry"/>
                </mxCell>
                <mxCell id="33" value="" style="endArrow=block;endSize=16;endFill=0;html=1;fontSize=18;exitX=0.5;exitY=0;exitDx=0;exitDy=0;entryX=0.5;entryY=1;entryDx=0;entryDy=0;" edge="1" parent="1" source="26">
                    <mxGeometry width="160" relative="1" as="geometry">
                        <mxPoint x="1264" y="510" as="sourcePoint"/>
                        <mxPoint x="1264" y="430" as="targetPoint"/>
                    </mxGeometry>
                </mxCell>
                <mxCell id="37" value="" style="endArrow=block;endSize=16;endFill=0;html=1;fontSize=18;exitX=0.5;exitY=0;exitDx=0;exitDy=0;entryX=0.5;entryY=1;entryDx=0;entryDy=0;" edge="1" parent="1" source="30">
                    <mxGeometry width="160" relative="1" as="geometry">
                        <mxPoint x="1263.5" y="750" as="sourcePoint"/>
                        <mxPoint x="1263.5" y="610" as="targetPoint"/>
                    </mxGeometry>
                </mxCell>
                <mxCell id="39" value="&lt;h1 style=&quot;font-size: 20px&quot;&gt;&lt;font style=&quot;font-size: 20px&quot;&gt;Breve historico da UML&lt;/font&gt;&lt;/h1&gt;&lt;p style=&quot;font-size: 20px&quot;&gt;&amp;nbsp;- &lt;b&gt;1980: surgimento&lt;/b&gt; das &lt;b&gt;linguagens orientadas a objetos&lt;/b&gt;, o novo paradigma, no mercado.&lt;/p&gt;&lt;p style=&quot;font-size: 20px&quot;&gt;&amp;nbsp;- &lt;b&gt;1988 a 1992: &lt;/b&gt;surgimento de &lt;b&gt;varios modelos&lt;/b&gt; para o novo &lt;b&gt;paradigma&lt;/b&gt;.&lt;/p&gt;&lt;p style=&quot;font-size: 20px&quot;&gt;&amp;nbsp;- Destaque para: Ivar Jacobson, James Rumbaugh, Grady Booch&lt;/p&gt;&lt;p style=&quot;font-size: 20px&quot;&gt;&amp;nbsp;- &lt;b&gt;1997: OMG (Object Management Group) &lt;/b&gt;solicitou propostas para definição de uma linguagem e notação de modelagem padronizada. &lt;span style=&quot;white-space: pre&quot;&gt;&#9;&lt;/span&gt;A &lt;b&gt;UML&lt;/b&gt; foi submetida e aprovada como&amp;nbsp; &amp;nbsp;padrão.&lt;/p&gt;&lt;p style=&quot;font-size: 20px&quot;&gt;&lt;br&gt;&lt;/p&gt;&lt;p style=&quot;font-size: 20px&quot;&gt;A linguagem de modelagem &lt;b&gt;UML&lt;/b&gt;&lt;/p&gt;&lt;p style=&quot;font-size: 20px&quot;&gt;&lt;b&gt;&amp;nbsp;&lt;/b&gt;- Linguagem de modelagem baseada no paradigma de orientação a objetos&lt;/p&gt;&lt;p style=&quot;font-size: 20px&quot;&gt;&amp;nbsp;- &lt;b&gt;Modelar&lt;/b&gt; sistemas &lt;b&gt;baseando-se &lt;/b&gt;em &lt;b&gt;orientação a objetos&lt;/b&gt; é um modo de &lt;b&gt;estudar&lt;/b&gt; problemas com utilização de &lt;b&gt;modelos fundamentados&lt;/b&gt; em &lt;b&gt;conceitos&lt;/b&gt; do &lt;b&gt;mundo real&lt;/b&gt;&lt;/p&gt;&lt;p style=&quot;font-size: 20px&quot;&gt;&lt;b&gt;&lt;br&gt;&lt;/b&gt;&lt;/p&gt;&lt;p style=&quot;font-size: 20px&quot;&gt;Vantagens de utilização desse paradigma&lt;/p&gt;&lt;p style=&quot;font-size: 20px&quot;&gt;&amp;nbsp;- Conceitos da realidade&lt;/p&gt;&lt;p style=&quot;font-size: 20px&quot;&gt;&amp;nbsp;- Modularidade&lt;/p&gt;&lt;p style=&quot;font-size: 20px&quot;&gt;&amp;nbsp;- Reusabilidade&lt;/p&gt;&lt;p style=&quot;font-size: 20px&quot;&gt;&amp;nbsp;- Facilidade de &lt;b&gt;demostrar documentação&lt;/b&gt; para &lt;b&gt;leigos&lt;/b&gt;&lt;/p&gt;" style="text;html=1;strokeColor=#006EAF;fillColor=#1ba1e2;spacing=5;spacingTop=-20;whiteSpace=wrap;overflow=hidden;rounded=0;fontSize=18;fontColor=#ffffff;" vertex="1" parent="1">
                    <mxGeometry x="150" y="870" width="1330" height="700" as="geometry"/>
                </mxCell>
            </root>
        </mxGraphModel>
    </diagram>
    <diagram id="LQNcwnW98zHaksGb13tw" name="Tipos de Diagramas">
        <mxGraphModel dx="1374" dy="798" grid="1" gridSize="10" guides="1" tooltips="1" connect="1" arrows="1" fold="1" page="1" pageScale="1" pageWidth="1654" pageHeight="2336" math="0" shadow="0">
            <root>
                <mxCell id="ISQQdezIkPTUIYKw_h4--0"/>
                <mxCell id="ISQQdezIkPTUIYKw_h4--1" parent="ISQQdezIkPTUIYKw_h4--0"/>
                <mxCell id="ISQQdezIkPTUIYKw_h4--25" value="" style="rounded=0;whiteSpace=wrap;html=1;fontSize=20;fillColor=#1ba1e2;fontColor=#ffffff;strokeColor=#006EAF;" vertex="1" parent="ISQQdezIkPTUIYKw_h4--1">
                    <mxGeometry x="260" y="450" width="790" height="320" as="geometry"/>
                </mxCell>
                <mxCell id="ISQQdezIkPTUIYKw_h4--2" value="&lt;h1&gt;&lt;font style=&quot;font-size: 31px&quot;&gt;Metodo != Metodologia&lt;/font&gt;&lt;/h1&gt;&lt;p&gt;&lt;b&gt;Metodologia&lt;/b&gt; é o estudo dos metodos e especialmente dos metodos da ciencia&lt;/p&gt;&lt;p&gt;&lt;b&gt;Metodo&lt;/b&gt; é o modo de proceder, a maneira de agir(executar), o meio propriamente&lt;/p&gt;&lt;p&gt;A &lt;b&gt;UML&lt;/b&gt; é uma linguagem de modelagem, não uma metodologia. &lt;b&gt;UML&lt;/b&gt; não tem &lt;b&gt;noçoes de processo&lt;/b&gt;, que é uma parte importante de &lt;b&gt;metodologia&lt;/b&gt;.&lt;/p&gt;&lt;p&gt;(&lt;b&gt;FOWLER&lt;/b&gt;, M. e &lt;b&gt;SCOTT&lt;/b&gt;, K. UML Essencial.Bookman, 2a ed, p29)&lt;/p&gt;" style="text;html=1;strokeColor=#006EAF;fillColor=#1ba1e2;spacing=5;spacingTop=-20;whiteSpace=wrap;overflow=hidden;rounded=0;fontSize=20;fontColor=#ffffff;" vertex="1" parent="ISQQdezIkPTUIYKw_h4--1">
                    <mxGeometry x="260" y="60" width="760" height="320" as="geometry"/>
                </mxCell>
                <mxCell id="ISQQdezIkPTUIYKw_h4--3" value="&lt;font&gt;&lt;font style=&quot;font-size: 22px&quot;&gt;&lt;b&gt;Linguagem de Modelagem&lt;/b&gt;&lt;/font&gt;&lt;br&gt;&lt;br&gt;&amp;nbsp;- Por que utilizar diagramas.....&lt;br&gt;&lt;div style=&quot;font-size: 20px&quot;&gt;&lt;span&gt;&amp;nbsp;- O que essa figura representa?&lt;/span&gt;&lt;/div&gt;&lt;/font&gt;" style="text;html=1;strokeColor=none;fillColor=none;align=left;verticalAlign=middle;whiteSpace=wrap;rounded=0;fontSize=20;" vertex="1" parent="ISQQdezIkPTUIYKw_h4--1">
                    <mxGeometry x="320" y="450" width="530" height="110" as="geometry"/>
                </mxCell>
                <mxCell id="ISQQdezIkPTUIYKw_h4--4" value="" style="rounded=0;whiteSpace=wrap;html=1;fontSize=20;" vertex="1" parent="ISQQdezIkPTUIYKw_h4--1">
                    <mxGeometry x="400" y="640" width="120" height="60" as="geometry"/>
                </mxCell>
                <mxCell id="ISQQdezIkPTUIYKw_h4--5" value="" style="triangle;whiteSpace=wrap;html=1;fontSize=20;rotation=-90;direction=east;" vertex="1" parent="ISQQdezIkPTUIYKw_h4--1">
                    <mxGeometry x="430" y="550" width="60" height="120" as="geometry"/>
                </mxCell>
                <mxCell id="ISQQdezIkPTUIYKw_h4--6" value="" style="rounded=0;whiteSpace=wrap;html=1;fontSize=20;" vertex="1" parent="ISQQdezIkPTUIYKw_h4--1">
                    <mxGeometry x="450" y="660" width="20" height="40" as="geometry"/>
                </mxCell>
                <mxCell id="ISQQdezIkPTUIYKw_h4--8" value="" style="whiteSpace=wrap;html=1;aspect=fixed;fontSize=20;" vertex="1" parent="ISQQdezIkPTUIYKw_h4--1">
                    <mxGeometry x="490" y="660" width="20" height="20" as="geometry"/>
                </mxCell>
                <mxCell id="ISQQdezIkPTUIYKw_h4--9" value="" style="whiteSpace=wrap;html=1;aspect=fixed;fontSize=20;" vertex="1" parent="ISQQdezIkPTUIYKw_h4--1">
                    <mxGeometry x="410" y="660" width="20" height="20" as="geometry"/>
                </mxCell>
                <mxCell id="ISQQdezIkPTUIYKw_h4--11" value="- Simplificação da realidade ( representa uma casa)" style="text;html=1;strokeColor=none;fillColor=none;align=left;verticalAlign=middle;whiteSpace=wrap;rounded=0;fontSize=20;" vertex="1" parent="ISQQdezIkPTUIYKw_h4--1">
                    <mxGeometry x="320" y="720" width="490" height="30" as="geometry"/>
                </mxCell>
                <mxCell id="ISQQdezIkPTUIYKw_h4--12" value="&lt;font style=&quot;font-size: 22px&quot;&gt;&lt;b&gt;Quando devemos utlizar os diagramas?&lt;br&gt;&lt;/b&gt;&lt;/font&gt;&amp;nbsp;&lt;br&gt;&amp;nbsp;- Transmissão de ideias&lt;br&gt;&amp;nbsp;- Documentação&lt;br&gt;&amp;nbsp;- Especificação, elaboração&lt;br&gt;&amp;nbsp;- Construção" style="text;html=1;strokeColor=#006EAF;fillColor=#1ba1e2;align=left;verticalAlign=middle;whiteSpace=wrap;rounded=0;fontSize=20;fontColor=#ffffff;" vertex="1" parent="ISQQdezIkPTUIYKw_h4--1">
                    <mxGeometry x="260" y="800" width="550" height="160" as="geometry"/>
                </mxCell>
                <mxCell id="ISQQdezIkPTUIYKw_h4--13" value="&lt;font style=&quot;font-size: 22px&quot;&gt;&lt;b&gt;Diagramas UML que serão apresentados&lt;/b&gt;&lt;/font&gt;&lt;br&gt;&amp;nbsp;&lt;br&gt;&amp;nbsp;- Diagrama de Caso de Uso&lt;br&gt;&amp;nbsp;- Diagrama de Classes&lt;br&gt;&amp;nbsp;- Diagrama de Objetos&lt;br&gt;&amp;nbsp;- Diagrama de Componentes&lt;br&gt;&amp;nbsp;- Diagrama de Implantação&lt;br&gt;&amp;nbsp;- Diagrama de Sequencia&lt;br&gt;&amp;nbsp;- Diagrama de Comunicação (Colaboração)&lt;br&gt;&amp;nbsp;- Diagrama de Atividade&lt;br&gt;&amp;nbsp;- Diagrama de Estados" style="text;html=1;strokeColor=#006EAF;fillColor=#1ba1e2;align=left;verticalAlign=middle;whiteSpace=wrap;rounded=0;fontSize=20;fontColor=#ffffff;" vertex="1" parent="ISQQdezIkPTUIYKw_h4--1">
                    <mxGeometry x="260" y="990" width="550" height="310" as="geometry"/>
                </mxCell>
                <mxCell id="ISQQdezIkPTUIYKw_h4--14" value="&lt;font style=&quot;font-size: 22px&quot;&gt;&lt;b&gt;Tipos de diagramas&lt;br&gt;&lt;/b&gt;&lt;/font&gt;&amp;nbsp;&lt;br&gt;&amp;nbsp;- Visões estaticas: diagramas de &lt;b&gt;caso de uso, classe, objeto e componente&lt;br&gt;&lt;br&gt;&amp;nbsp;&lt;/b&gt;- Visões dinamicas: diagramas de&lt;b&gt; sequencia, colaboração, estado, atividade e implantação&lt;br&gt;&lt;br&gt;&lt;br&gt;&amp;nbsp;É necessario utilizar todos os diagramas? NÃÃÃÃO&lt;br&gt;&lt;/b&gt;" style="text;html=1;strokeColor=#006EAF;fillColor=#1ba1e2;align=left;verticalAlign=middle;whiteSpace=wrap;rounded=0;fontSize=20;fontColor=#ffffff;" vertex="1" parent="ISQQdezIkPTUIYKw_h4--1">
                    <mxGeometry x="260" y="1320" width="940" height="220" as="geometry"/>
                </mxCell>
                <mxCell id="ISQQdezIkPTUIYKw_h4--15" value="&lt;font style=&quot;font-size: 22px&quot;&gt;&lt;b&gt;Processo da UML&lt;/b&gt;&lt;/font&gt;&lt;br&gt;&lt;br&gt;&amp;nbsp;- Sugestão de processo da OMG (Object management Group)&lt;br&gt;&lt;span style=&quot;white-space: pre&quot;&gt;&#9;&lt;/span&gt;- Etapas do processo&lt;br&gt;&lt;br&gt;&amp;nbsp;&lt;b&gt;Concepção -&amp;gt; Definição -&amp;gt; Contrução&amp;nbsp; -&amp;gt;&amp;nbsp; Finalização&lt;/b&gt;" style="text;html=1;strokeColor=#006EAF;fillColor=#1ba1e2;align=left;verticalAlign=middle;whiteSpace=wrap;rounded=0;fontSize=20;fontColor=#ffffff;" vertex="1" parent="ISQQdezIkPTUIYKw_h4--1">
                    <mxGeometry x="260" y="1570" width="690" height="190" as="geometry"/>
                </mxCell>
                <mxCell id="ISQQdezIkPTUIYKw_h4--16" value="&lt;font style=&quot;font-size: 22px&quot;&gt;&lt;b&gt;Caracteristicas do processo exigidas pela UML para sua aplicação&lt;/b&gt;&lt;/font&gt;&lt;br&gt;&lt;br&gt;&amp;nbsp;- Orientado a casos de uso (Funcionalidade)&lt;br&gt;&lt;br&gt;&amp;nbsp;- Centrado na arquitetura&lt;br&gt;&lt;br&gt;&amp;nbsp;- Iterativo e incremental" style="text;html=1;strokeColor=#006EAF;fillColor=#1ba1e2;align=left;verticalAlign=middle;whiteSpace=wrap;rounded=0;fontSize=20;fontColor=#ffffff;" vertex="1" parent="ISQQdezIkPTUIYKw_h4--1">
                    <mxGeometry x="260" y="1790" width="700" height="210" as="geometry"/>
                </mxCell>
                <mxCell id="ISQQdezIkPTUIYKw_h4--17" value="&lt;font style=&quot;font-size: 22px&quot;&gt;&lt;b&gt;Concepção&lt;/b&gt;&lt;/font&gt;&lt;br&gt;&amp;nbsp;- Palno de negocios&lt;br&gt;&amp;nbsp;- Definição do escopo do projeto&lt;br&gt;&amp;nbsp;- Definir proximos passos a serem tomados&lt;br&gt;&lt;br&gt;&amp;nbsp;Ex: Sistema para controle de uma video locadora" style="text;html=1;strokeColor=#006EAF;fillColor=#1ba1e2;align=left;verticalAlign=middle;whiteSpace=wrap;rounded=0;fontSize=20;fontColor=#ffffff;" vertex="1" parent="ISQQdezIkPTUIYKw_h4--1">
                    <mxGeometry x="260" y="2020" width="700" height="210" as="geometry"/>
                </mxCell>
                <mxCell id="ISQQdezIkPTUIYKw_h4--18" value="&lt;font style=&quot;font-size: 22px&quot;&gt;&lt;b&gt;Definição&amp;nbsp;&lt;br&gt;&lt;/b&gt;&lt;/font&gt;&amp;nbsp;- Captura de requisitos&lt;br&gt;&lt;br&gt;&amp;nbsp;- Definição dos casos de usos&lt;br&gt;&amp;nbsp;&lt;span style=&quot;white-space: pre&quot;&gt;&#9;&lt;/span&gt;- O que sãocasos de uso?&amp;nbsp;&lt;br&gt;&lt;br&gt;&amp;nbsp;- Qual a importancia dos casos de uso?&lt;br&gt;&lt;span style=&quot;white-space: pre&quot;&gt;&#9;&lt;/span&gt;- Capturam requisitos funcionais&lt;br&gt;&lt;span style=&quot;white-space: pre&quot;&gt;&#9;&lt;/span&gt;- Direcionam a implementação e os testes&lt;br&gt;&lt;br&gt;- Definição de modelo de dominio do sistema&lt;br&gt;&lt;br&gt;&amp;nbsp;Ex: Na video locadora ha funcionarios que mantem a loja e realizam o atendimento dos clientes. O atendimento abrange o aluguel de fimes até consultas sobre disponibilidade, queremos tambem possibilitar que os clientes consultem eles mesmos os filmes disponiveis para aluguel, em computadores distribuidos pela loja." style="text;html=1;strokeColor=#006EAF;fillColor=#1ba1e2;align=left;verticalAlign=middle;whiteSpace=wrap;rounded=0;fontSize=20;fontColor=#ffffff;" vertex="1" parent="ISQQdezIkPTUIYKw_h4--1">
                    <mxGeometry x="260" y="2260" width="975" height="420" as="geometry"/>
                </mxCell>
                <mxCell id="ISQQdezIkPTUIYKw_h4--19" value="&lt;font style=&quot;font-size: 22px&quot;&gt;&lt;b&gt;Construção e Finalização&lt;/b&gt;&lt;/font&gt;&lt;br&gt;&lt;br&gt;&amp;nbsp;- Iterações&lt;br&gt;&lt;span style=&quot;white-space: pre&quot;&gt;&#9;&lt;/span&gt;- O que sera desenvolvido em cada etapa?&lt;br&gt;&lt;br&gt;&amp;nbsp;- Transição&lt;br&gt;&lt;span style=&quot;white-space: pre&quot;&gt;&#9;&lt;/span&gt;- Fase de aperfeiçoamento" style="text;html=1;strokeColor=#006EAF;fillColor=#1ba1e2;align=left;verticalAlign=middle;whiteSpace=wrap;rounded=0;fontSize=20;fontColor=#ffffff;" vertex="1" parent="ISQQdezIkPTUIYKw_h4--1">
                    <mxGeometry x="260" y="2710" width="700" height="210" as="geometry"/>
                </mxCell>
                <mxCell id="ISQQdezIkPTUIYKw_h4--20" value="&lt;font style=&quot;font-size: 22px&quot;&gt;&lt;b&gt;Modelagem estatica&lt;/b&gt;&lt;/font&gt;&lt;br&gt;&lt;br&gt;&amp;nbsp;- Na modelagem estatica procuramos capturar o comportamento do sistema, suas caracteristicas e a relação entre funcionalidades e objetos.&lt;br&gt;&lt;br&gt;&amp;nbsp;- Diagramas que devem ser usados para a modelagem estatica: &lt;b&gt;Caso de uso, Classe, Objeto e Componente&lt;/b&gt;" style="text;html=1;strokeColor=#006EAF;fillColor=#1ba1e2;align=left;verticalAlign=middle;whiteSpace=wrap;rounded=0;fontSize=20;fontColor=#ffffff;" vertex="1" parent="ISQQdezIkPTUIYKw_h4--1">
                    <mxGeometry x="258" y="2980" width="1400" height="210" as="geometry"/>
                </mxCell>
                <mxCell id="ISQQdezIkPTUIYKw_h4--21" value="&lt;font style=&quot;font-size: 22px&quot;&gt;&lt;b&gt;Modelagem dinamica&lt;/b&gt;&lt;/font&gt;&lt;br&gt;&lt;br&gt;- Na modelagem dinamica procuramos &lt;b&gt;capturar&lt;/b&gt; o &lt;b&gt;comportamento&lt;/b&gt; que um sistema tem a longo do tempo.&lt;br&gt;&lt;br&gt;- O &lt;b&gt;comportamento&lt;/b&gt; de sistemas &lt;b&gt;orientados a objetos&lt;/b&gt; pode ser observado pela &lt;b&gt;comunicação&lt;/b&gt; entre os &lt;b&gt;objetos&lt;/b&gt;(entre outas formas)&lt;br&gt;&lt;br&gt;- &lt;b&gt;Troca de mensagens&lt;/b&gt; é um &lt;b&gt;relacionamento dinamico&lt;/b&gt; entre os objetos ( uma interação entre eles)&lt;br&gt;&lt;br&gt;- A Comunicação entre objetos ocorre pela &quot;Troca de mensagens&quot;&lt;br&gt;&lt;br&gt;- Diagramas que devem ser usados para a modelagem dinamica: &lt;b&gt;Sequencia - Colaboração - Estados - Atividades&lt;br&gt;&lt;/b&gt;&lt;br&gt;- Mensagens&lt;br&gt;&lt;span style=&quot;white-space: pre&quot;&gt;&#9;&lt;/span&gt;- Forma de comunicação entre dois objetos&lt;br&gt;&lt;span style=&quot;white-space: pre&quot;&gt;&#9;&lt;/span&gt;- &quot;Manda&quot; um objeto fazer algo&lt;br&gt;&lt;span style=&quot;white-space: pre&quot;&gt;&#9;&lt;/span&gt;- É implentada como uma chamada de operação&lt;br&gt;&lt;span style=&quot;white-space: pre&quot;&gt;&#9;&lt;/span&gt;- Durante a fase de análise, uma mensagem pode ser vista como a solicitação de um serviço/informação&lt;br&gt;&lt;span style=&quot;white-space: pre&quot;&gt;&#9;&lt;/span&gt;- Em programação, uma mensagem é a invocação de metodo(operação), ou seja , chamada de uma função.&lt;br&gt;&lt;br&gt;- Mensagem representação simbolica&lt;br&gt;&lt;span style=&quot;white-space: pre&quot;&gt;&#9;&lt;/span&gt;&lt;br&gt;&lt;span style=&quot;white-space: pre&quot;&gt;&#9;&lt;/span&gt;&lt;span style=&quot;white-space: pre&quot;&gt;&#9;&lt;/span&gt;&lt;span style=&quot;white-space: pre&quot;&gt;&#9;&lt;/span&gt;&amp;nbsp;- simples: representa uma mensagem num nivel simplificado, sem revelar maiores detalhes&lt;br&gt;&lt;br&gt;&lt;span style=&quot;white-space: pre&quot;&gt;&#9;&lt;/span&gt;&lt;span style=&quot;white-space: pre&quot;&gt;&#9;&lt;/span&gt;&lt;span style=&quot;white-space: pre&quot;&gt;&#9;&lt;/span&gt;- sincrona: implementada como uma chamada de função, onde quem chama aguarda o fim da operação para continuar a execução&lt;br&gt;&lt;br&gt;&lt;span style=&quot;white-space: pre&quot;&gt;&#9;&lt;/span&gt;&lt;span style=&quot;white-space: pre&quot;&gt;&#9;&lt;/span&gt;&lt;span style=&quot;white-space: pre&quot;&gt;&#9;&lt;/span&gt;- assincrona: implementada como uma chamada de função, onde quem chama não aguarda o fim da operação para continuar sua execução" style="text;html=1;strokeColor=#006EAF;fillColor=#1ba1e2;align=left;verticalAlign=middle;whiteSpace=wrap;rounded=0;fontSize=20;fontColor=#ffffff;" vertex="1" parent="ISQQdezIkPTUIYKw_h4--1">
                    <mxGeometry x="260" y="3210" width="1405" height="640" as="geometry"/>
                </mxCell>
                <mxCell id="ISQQdezIkPTUIYKw_h4--22" value="" style="endArrow=open;endSize=16;endFill=0;html=1;fontSize=20;strokeWidth=2;" edge="1" parent="ISQQdezIkPTUIYKw_h4--1">
                    <mxGeometry width="160" relative="1" as="geometry">
                        <mxPoint x="280" y="3740" as="sourcePoint"/>
                        <mxPoint x="385" y="3740" as="targetPoint"/>
                        <Array as="points">
                            <mxPoint x="355" y="3740"/>
                        </Array>
                    </mxGeometry>
                </mxCell>
                <mxCell id="ISQQdezIkPTUIYKw_h4--23" value="" style="endArrow=block;endSize=16;endFill=1;html=1;fontSize=20;" edge="1" parent="ISQQdezIkPTUIYKw_h4--1">
                    <mxGeometry width="160" relative="1" as="geometry">
                        <mxPoint x="280" y="3780" as="sourcePoint"/>
                        <mxPoint x="385" y="3780" as="targetPoint"/>
                        <Array as="points">
                            <mxPoint x="355" y="3780"/>
                        </Array>
                    </mxGeometry>
                </mxCell>
                <mxCell id="ISQQdezIkPTUIYKw_h4--24" value="" style="endArrow=openAsync;endSize=16;endFill=0;html=1;fontSize=20;strokeWidth=2;" edge="1" parent="ISQQdezIkPTUIYKw_h4--1">
                    <mxGeometry width="160" relative="1" as="geometry">
                        <mxPoint x="280" y="3830" as="sourcePoint"/>
                        <mxPoint x="385" y="3830" as="targetPoint"/>
                        <Array as="points">
                            <mxPoint x="355" y="3830"/>
                        </Array>
                    </mxGeometry>
                </mxCell>
            </root>
        </mxGraphModel>
    </diagram>
</mxfile>